<?xml version="1.0" encoding="UTF-8"?>
<svg version="1.1" xmlns="http://www.w3.org/2000/svg" width="50" height="50">
<path d="M0 0 C9.24 0 18.48 0 28 0 C28.375 9.875 28.375 9.875 28.47802734 12.98388672 C28.5136377 13.79100098 28.54924805 14.59811523 28.5859375 15.4296875 C28.63306885 16.67081299 28.63306885 16.67081299 28.68115234 17.93701172 C28.82599137 20.21986085 28.82599137 20.21986085 31 22 C27.8035914 23.06546953 25.34252724 23.07427838 22 23 C22.33 22.01 22.66 21.02 23 20 C23.14492123 18.59335074 23.24628931 17.1818867 23.31640625 15.76953125 C23.35830078 14.96708984 23.40019531 14.16464844 23.44335938 13.33789062 C23.48267578 12.50451172 23.52199219 11.67113281 23.5625 10.8125 C23.60568359 9.96751953 23.64886719 9.12253906 23.69335938 8.25195312 C23.79931518 6.16815567 23.9001502 4.08409897 24 2 C23.01 2 22.02 2 21 2 C21.02094727 2.66531738 21.04189453 3.33063477 21.06347656 4.01611328 C21.14700609 7.05225302 21.19877603 10.08815043 21.25 13.125 C21.28351562 14.17171875 21.31703125 15.2184375 21.3515625 16.296875 C21.43048886 22.53205705 21.2738708 26.31104102 17 31 C14 33 14 33 10 33 C11.01620005 29.95139986 11.77391571 29.13333078 14 27 C15.14352916 24.71294169 15.10334439 23.40735238 15.0625 20.875 C15.041875 19.59625 15.02125 18.3175 15 17 C14.38125 17.495 13.7625 17.99 13.125 18.5 C8.73970259 20.60494276 4.78286739 20.25075227 0 20 C0 19.34 0 18.68 0 18 C0.66 18 1.32 18 2 18 C1.85946128 15.37461716 1.71281053 12.74982573 1.5625 10.125 C1.50352539 9.00544922 1.50352539 9.00544922 1.44335938 7.86328125 C1.28426376 3.80013136 1.28426376 3.80013136 0 0 Z M6 2 C6 7.28 6 12.56 6 18 C10.02635231 17.48092973 10.02635231 17.48092973 11.3125 14.9375 C12.25679273 10.90279469 11.80146781 8.07412801 11 4 C10.34 3.34 9.68 2.68 9 2 C8.01 2 7.02 2 6 2 Z M14 2 C14.66 3.32 15.32 4.64 16 6 C16 4.68 16 3.36 16 2 C15.34 2 14.68 2 14 2 Z " fill="#DCBA4C" transform="translate(6,9)"/>
<path d="M0 0 C1.7492214 -0.08142927 3.49954542 -0.13938541 5.25 -0.1875 C6.22453125 -0.22230469 7.1990625 -0.25710938 8.203125 -0.29296875 C11.42776918 0.04480822 12.70790797 0.74470761 15 3 C16.48017557 7.4405267 16.65808913 11.9160511 15.25 16.375 C13.6709959 18.42770533 12.40190773 19.03256494 10 20 C7.421875 20.1953125 7.421875 20.1953125 4.75 20.125 C3.85796875 20.10695313 2.9659375 20.08890625 2.046875 20.0703125 C1.37140625 20.04710938 0.6959375 20.02390625 0 20 C0 19.34 0 18.68 0 18 C0.66 18 1.32 18 2 18 C1.85946128 15.37461716 1.71281053 12.74982573 1.5625 10.125 C1.50352539 9.00544922 1.50352539 9.00544922 1.44335938 7.86328125 C1.28426376 3.80013136 1.28426376 3.80013136 0 0 Z M6 2 C6 7.28 6 12.56 6 18 C10.02635231 17.48092973 10.02635231 17.48092973 11.3125 14.9375 C12.25679273 10.90279469 11.80146781 8.07412801 11 4 C10.34 3.34 9.68 2.68 9 2 C8.01 2 7.02 2 6 2 Z " fill="#C19832" transform="translate(6,9)"/>
<path d="M0 0 C1.98 0 3.96 0 6 0 C6.1238616 4.05656281 6.21445733 8.11238978 6.2746582 12.17041016 C6.2997593 13.54983702 6.33384873 14.92913142 6.37719727 16.30810547 C6.43802875 18.29335872 6.46357937 20.27959359 6.48828125 22.265625 C6.51446533 23.45961914 6.54064941 24.65361328 6.56762695 25.88378906 C6 29 6 29 3.71948242 31.42089844 C1 33 1 33 -3 33 C-1.98379995 29.95139986 -1.22608429 29.13333078 1 27 C2.25838557 24.48322887 2.20818973 22.58706712 2.31640625 19.7734375 C2.35830078 18.7421875 2.40019531 17.7109375 2.44335938 16.6484375 C2.48267578 15.56820313 2.52199219 14.48796875 2.5625 13.375 C2.62727539 11.74304688 2.62727539 11.74304688 2.69335938 10.078125 C2.7996453 7.3855483 2.90168057 4.69287747 3 2 C2.01 1.67 1.02 1.34 0 1 C0 0.67 0 0.34 0 0 Z " fill="#C8A23A" transform="translate(19,9)"/>
<path d="M0 0 C1.9375 0.8125 1.9375 0.8125 4 2 C5.48059295 6.44177885 5.610781 10.89002927 4.3125 15.375 C2.53183134 17.57963739 0.66154523 18.15951203 -2 19 C-1.855625 18.505 -1.71125 18.01 -1.5625 17.5 C-0.24725679 11.65447464 0.12422801 5.96294448 0 0 Z " fill="#FBE97C" transform="translate(17,10)"/>
<path d="M0 0 C1.32 0 2.64 0 4 0 C4 0.66 4 1.32 4 2 C3.34 2 2.68 2 2 2 C2.01571045 3.02939697 2.01571045 3.02939697 2.03173828 4.07958984 C2.07321874 7.17802289 2.09930069 10.27639761 2.125 13.375 C2.14175781 14.45523437 2.15851562 15.53546875 2.17578125 16.6484375 C2.18222656 17.6796875 2.18867188 18.7109375 2.1953125 19.7734375 C2.20578613 20.72653809 2.21625977 21.67963867 2.22705078 22.66162109 C2 25 2 25 0 27 C0 18.09 0 9.18 0 0 Z " fill="#F8DE69" transform="translate(25,9)"/>
<path d="M0 0 C0.66 0 1.32 0 2 0 C2.01981934 0.59538574 2.03963867 1.19077148 2.06005859 1.80419922 C2.15516126 4.49492153 2.26489842 7.18485148 2.375 9.875 C2.42140625 11.28072266 2.42140625 11.28072266 2.46875 12.71484375 C2.50742187 13.61074219 2.54609375 14.50664062 2.5859375 15.4296875 C2.6173584 16.25710449 2.6487793 17.08452148 2.68115234 17.93701172 C2.82599137 20.21986085 2.82599137 20.21986085 5 22 C4.01 22.33 3.02 22.66 2 23 C1.34 22.67 0.68 22.34 0 22 C0 14.74 0 7.48 0 0 Z " fill="#BC9330" transform="translate(32,9)"/>
<path d="M0 0 C1.32 0 2.64 0 4 0 C4 6.6 4 13.2 4 20 C2.68 20 1.36 20 0 20 C0 19.34 0 18.68 0 18 C0.66 18 1.32 18 2 18 C1.85946128 15.37461716 1.71281053 12.74982573 1.5625 10.125 C1.50352539 9.00544922 1.50352539 9.00544922 1.44335938 7.86328125 C1.28426376 3.80013136 1.28426376 3.80013136 0 0 Z " fill="#DDBB4F" transform="translate(6,9)"/>
<path d="M0 0 C3.3 0 6.6 0 10 0 C10 2.31 10 4.62 10 7 C9.34 7 8.68 7 8 7 C7.690625 6.0409375 7.690625 6.0409375 7.375 5.0625 C6.10461791 2.65074923 6.10461791 2.65074923 2.875 2.25 C1.92625 2.1675 0.9775 2.085 0 2 C0 1.34 0 0.68 0 0 Z " fill="#F1E175" transform="translate(35,9)"/>
<path d="M0 0 C0.33 0 0.66 0 1 0 C1.08090971 1.62418745 1.13914995 3.24951745 1.1875 4.875 C1.22230469 5.77992187 1.25710937 6.68484375 1.29296875 7.6171875 C1.19628906 8.40351562 1.09960938 9.18984375 1 10 C-2 12 -2 12 -6 12 C-5 9 -5 9 -3.5625 7.6875 C-1.43503794 5.38984098 -0.85871992 2.97249204 0 0 Z " fill="#C29A34" transform="translate(22,30)"/>
<path d="M0 0 C0.66 0 1.32 0 2 0 C2 2.64 2 5.28 2 8 C1.34 8 0.68 8 0 8 C-0.33 7.34 -0.66 6.68 -1 6 C-1.99 5.67 -2.98 5.34 -4 5 C-4 4.34 -4 3.68 -4 3 C-3.01 2.67 -2.02 2.34 -1 2 C-0.67 1.34 -0.34 0.68 0 0 Z " fill="#EACD5E" transform="translate(39,16)"/>
</svg>
