<svg xmlns="http://www.w3.org/2000/svg" viewBox="0 0 211.82 27.86"><defs><style>.cls-1{fill:#2264e6;}.cls-2{fill:#fff;}</style></defs><g id="Layer_2" data-name="Layer 2"><g id="Layer_1-2" data-name="Layer 1"><path class="cls-1" d="M40.15,22.25V6.41H46a10.42,10.42,0,0,1,1.14.07A6,6,0,0,1,50.3,7.84a6.8,6.8,0,0,1,2,2.78A9.91,9.91,0,0,1,53,14.33a9.9,9.9,0,0,1-.67,3.7,7,7,0,0,1-2,2.8,6,6,0,0,1-3.18,1.33,10.08,10.08,0,0,1-1.13.07l-.79,0Zm2.69-2.5H45.2l.83,0a7.4,7.4,0,0,0,.92-.1,3.19,3.19,0,0,0,1.82-1,4.92,4.92,0,0,0,1-1.93,8.43,8.43,0,0,0,.34-2.37,8.58,8.58,0,0,0-.34-2.42A4.81,4.81,0,0,0,48.75,10,3.2,3.2,0,0,0,47,9a5.88,5.88,0,0,0-.92-.1l-.83,0H42.84ZM61,22.58a6.15,6.15,0,0,1-3.16-.79,5.62,5.62,0,0,1-2.14-2.16,6.63,6.63,0,0,1-.76-3.19,7.17,7.17,0,0,1,.75-3.38,5.47,5.47,0,0,1,2.08-2.23A5.88,5.88,0,0,1,60.8,10a5.57,5.57,0,0,1,3.14.86,5.17,5.17,0,0,1,1.92,2.44,8.16,8.16,0,0,1,.47,3.7H63.7v-1A4.68,4.68,0,0,0,63,13.25a2.46,2.46,0,0,0-2.11-.89,2.86,2.86,0,0,0-2.42,1,4.66,4.66,0,0,0-.79,2.94,4.35,4.35,0,0,0,.79,2.79,2.79,2.79,0,0,0,2.31,1,3.13,3.13,0,0,0,1.68-.43,2.77,2.77,0,0,0,1.1-1.26l2.62.79a5.26,5.26,0,0,1-2.11,2.49A5.75,5.75,0,0,1,61,22.58ZM56.86,17V15H65v2Zm11.93,5.21V10.37h2.34v2.89l-.29-.38a4.44,4.44,0,0,1,.59-1.07,3.31,3.31,0,0,1,.89-.82,3.47,3.47,0,0,1,1-.46,4.12,4.12,0,0,1,1.1-.21,4.41,4.41,0,0,1,1.09,0v2.47a3.68,3.68,0,0,0-1.23-.1,2.87,2.87,0,0,0-1.23.39,2.77,2.77,0,0,0-.9.76,3.11,3.11,0,0,0-.51,1,4.65,4.65,0,0,0-.16,1.27v6Zm9-13.69V6.13h2.66V8.56Zm0,13.69V10.37h2.66V22.25Zm9.16,0L82.64,10.37h2.65l3,8.61,3-8.61h2.67L89.61,22.25Zm13.92.33a6.19,6.19,0,0,1-3.17-.79,5.53,5.53,0,0,1-2.13-2.16,6.51,6.51,0,0,1-.76-3.19,7.17,7.17,0,0,1,.75-3.38,5.47,5.47,0,0,1,2.08-2.23,5.88,5.88,0,0,1,3.08-.79,5.51,5.51,0,0,1,3.13.86,5.12,5.12,0,0,1,1.93,2.44,8.3,8.3,0,0,1,.47,3.7h-2.63v-1a4.75,4.75,0,0,0-.68-2.82,2.46,2.46,0,0,0-2.11-.89,2.86,2.86,0,0,0-2.42,1,4.66,4.66,0,0,0-.79,2.94,4.35,4.35,0,0,0,.79,2.79,2.79,2.79,0,0,0,2.31,1,3.13,3.13,0,0,0,1.68-.43,2.83,2.83,0,0,0,1.1-1.26l2.62.79A5.32,5.32,0,0,1,104,21.68,5.75,5.75,0,0,1,100.87,22.58ZM96.78,17V15H105v2Zm11.93,5.21V10.37h2.34v2.89l-.29-.38a4.12,4.12,0,0,1,.59-1.07,3.17,3.17,0,0,1,.89-.82,3.55,3.55,0,0,1,1-.46,4.19,4.19,0,0,1,1.1-.21,4.36,4.36,0,0,1,1.09,0v2.47a3.62,3.62,0,0,0-1.22-.1,2.87,2.87,0,0,0-1.23.39,2.57,2.57,0,0,0-.9.76,3.11,3.11,0,0,0-.51,1,4.65,4.65,0,0,0-.16,1.27v6Zm14,.33a6.19,6.19,0,0,1-3.17-.79,5.53,5.53,0,0,1-2.13-2.16,6.51,6.51,0,0,1-.76-3.19,7.17,7.17,0,0,1,.75-3.38,5.44,5.44,0,0,1,2.07-2.23,5.91,5.91,0,0,1,3.08-.79,5.54,5.54,0,0,1,3.14.86,5.11,5.11,0,0,1,1.92,2.44,8.29,8.29,0,0,1,.48,3.7h-2.63v-1a4.82,4.82,0,0,0-.68-2.82,2.46,2.46,0,0,0-2.12-.89,2.88,2.88,0,0,0-2.42,1,4.73,4.73,0,0,0-.79,2.94,4.41,4.41,0,0,0,.79,2.79,2.79,2.79,0,0,0,2.31,1,3.15,3.15,0,0,0,1.69-.43,2.89,2.89,0,0,0,1.1-1.26l2.62.79a5.28,5.28,0,0,1-2.12,2.49A5.71,5.71,0,0,1,122.68,22.58ZM118.59,17V15h8.17v2Zm17.08,5.54a5.79,5.79,0,0,1-3.13-.82,5.4,5.4,0,0,1-2-2.24,7.42,7.42,0,0,1-.7-3.21,7.29,7.29,0,0,1,.72-3.24,5.42,5.42,0,0,1,2-2.22A5.79,5.79,0,0,1,135.7,10a5.69,5.69,0,0,1,3.43,1A4.64,4.64,0,0,1,141,13.83l-2.64.72a2.82,2.82,0,0,0-1-1.49,2.64,2.64,0,0,0-1.63-.54A2.7,2.7,0,0,0,133,14.36a5.39,5.39,0,0,0-.32,1.95,4.48,4.48,0,0,0,.76,2.73,3,3,0,0,0,3.91.57,3,3,0,0,0,.93-1.4l2.7.6a5.13,5.13,0,0,1-1.92,2.8A5.75,5.75,0,0,1,135.67,22.58Zm7.5-.33V10.37h2.34v2.89l-.29-.38a4.12,4.12,0,0,1,.59-1.07,3.31,3.31,0,0,1,.89-.82,3.47,3.47,0,0,1,1-.46,4,4,0,0,1,1.1-.21,4.31,4.31,0,0,1,1.08,0v2.47a3.59,3.59,0,0,0-1.22-.1,2.87,2.87,0,0,0-1.23.39,2.57,2.57,0,0,0-.9.76,3.11,3.11,0,0,0-.51,1,4.65,4.65,0,0,0-.16,1.27v6Zm13.24.34a4.8,4.8,0,0,1-2.18-.44A3.82,3.82,0,0,1,152.87,21a4.66,4.66,0,0,1-.75-1.45,7.61,7.61,0,0,1-.32-1.45c0-.46-.07-.84-.07-1.12V10.37h2.69v5.72a11.57,11.57,0,0,0,.07,1.24,4.8,4.8,0,0,0,.36,1.32,2.62,2.62,0,0,0,.83,1,2.55,2.55,0,0,0,1.51.41,3.14,3.14,0,0,0,1-.17,2.17,2.17,0,0,0,.89-.56,2.84,2.84,0,0,0,.65-1.11,5.59,5.59,0,0,0,.24-1.78l1.58.67a6.2,6.2,0,0,1-.6,2.75,4.65,4.65,0,0,1-1.73,2A5.17,5.17,0,0,1,156.41,22.59Zm3.88-.34V18.56H160V10.37h2.66V22.25Zm5.65-13.69V6.13h2.66V8.56Zm0,13.69V10.37h2.66V22.25Zm12.91,0a11.36,11.36,0,0,1-2.31.18,5.33,5.33,0,0,1-2-.4,2.83,2.83,0,0,1-1.35-1.25,3.46,3.46,0,0,1-.43-1.57c0-.54,0-1.14,0-1.82V7.07h2.64V17.24c0,.48,0,.9,0,1.25a1.73,1.73,0,0,0,.23.88,1.52,1.52,0,0,0,1.26.74,8.58,8.58,0,0,0,2-.09Zm-8.28-9.81V10.37h8.28v2.07Zm11.06-3.88V6.13h2.65V8.56Zm0,13.69V10.37h2.65V22.25Zm14.16,0V16.53a9.54,9.54,0,0,0-.08-1.25,4.33,4.33,0,0,0-.36-1.31A2.33,2.33,0,0,0,193,12.52a3.14,3.14,0,0,0-1,.17,2.29,2.29,0,0,0-.9.57,2.71,2.71,0,0,0-.64,1.1,5.5,5.5,0,0,0-.24,1.78l-1.58-.67a6.33,6.33,0,0,1,.59-2.75,4.69,4.69,0,0,1,1.73-2A5.15,5.15,0,0,1,193.8,10a4.8,4.8,0,0,1,2.18.44,3.91,3.91,0,0,1,1.36,1.13,4.77,4.77,0,0,1,.75,1.45,7.65,7.65,0,0,1,.31,1.46,11,11,0,0,1,.08,1.11v6.64Zm-8.24,0V10.37h2.37v3.68h.32v8.2Zm18.79,5.61a6.05,6.05,0,0,1-1.9-.31,5.38,5.38,0,0,1-1.63-.89,4.68,4.68,0,0,1-1.19-1.39l2.44-1.21a2.22,2.22,0,0,0,1,1,2.93,2.93,0,0,0,1.33.32,3.45,3.45,0,0,0,1.47-.3,2.19,2.19,0,0,0,1-.86,2.46,2.46,0,0,0,.34-1.41V19.4h.33v-9h2.32V22.82a8,8,0,0,1,0,.86,5.45,5.45,0,0,1-.12.81,3.69,3.69,0,0,1-1,1.89,4.58,4.58,0,0,1-1.86,1.11A7.81,7.81,0,0,1,206.34,27.86Zm-.23-5.28a5,5,0,0,1-2.86-.83,5.38,5.38,0,0,1-1.89-2.24,7.39,7.39,0,0,1-.67-3.2,7.36,7.36,0,0,1,.67-3.22,5.36,5.36,0,0,1,1.92-2.23,5.19,5.19,0,0,1,2.93-.82,4.74,4.74,0,0,1,2.84.82,5,5,0,0,1,1.74,2.23,8.22,8.22,0,0,1,.6,3.22,8.22,8.22,0,0,1-.6,3.2A5,5,0,0,1,209,21.75,4.93,4.93,0,0,1,206.11,22.58Zm.41-2.38a2.56,2.56,0,0,0,2.67-1.86,6.27,6.27,0,0,0,.31-2,6.25,6.25,0,0,0-.31-2,2.72,2.72,0,0,0-.94-1.36,2.6,2.6,0,0,0-1.65-.5,2.85,2.85,0,0,0-1.76.53,3,3,0,0,0-1,1.41,5.52,5.52,0,0,0-.33,2,6,6,0,0,0,.32,2,3,3,0,0,0,1,1.39A2.7,2.7,0,0,0,206.52,20.2Z"/><path class="cls-1" d="M22.15,4.7,15,.59a5.26,5.26,0,0,0-4.85,0L3,4.73C.17,6.65,0,6.94,0,10v7.46c0,3.07.17,3.37,3.07,5.32l7.1,4.12a5.06,5.06,0,0,0,2.44.59A5,5,0,0,0,15,26.91l7.18-4.14c2.84-1.93,3-2.22,3-5.28V10C25.22,6.94,25.05,6.65,22.15,4.7Z"/><path class="cls-2" d="M12.61,18.22a4.47,4.47,0,1,0-4.47-4.47A4.47,4.47,0,0,0,12.61,18.22Z"/></g></g></svg>